<svg width="25" height="25" viewBox="0 0 25 25" fill="none" xmlns="http://www.w3.org/2000/svg">
<path d="M8 8.14115C8.58007 8.14115 9.20764 8.14115 9.20764 8.14115V5.3776C9.20764 3.56146 10.6983 2.08333 12.5305 2.08333C14.3626 2.08333 15.8538 3.56146 15.8538 5.3776V8.14115H16.8106H17.9555V5.3776C17.9561 2.4125 15.5223 0 12.5305 0C9.53971 0 7.10592 2.4125 7.10592 5.3776V8.14115H8Z" fill="#CCCACA"/>
<path d="M24.5849 8.14115H19.0069H17.9555H16.8106H14.8035H9.20764C9.20764 8.14115 9.1591 8.14115 8 8.14115C6.8409 8.14115 6.6851 8.14115 6.6851 8.14115H6.05559H0.415095C0.125057 8.14115 -0.0541143 8.36771 0.0147171 8.64687L3.69168 23.4891C3.91341 24.3234 4.79928 25 5.6694 25H19.3306C20.2017 25 21.0866 24.3234 21.3093 23.4891L24.9853 8.64687C25.0541 8.36719 24.8754 8.14115 24.5849 8.14115Z" fill="#CCCACA"/>
</svg>
