<svg width="24" height="24" viewBox="0 0 24 24" fill="none" xmlns="http://www.w3.org/2000/svg">
<g clip-path="url(#clip0_60947_397)">
<path d="M13.1929 11.8946C13.2447 11.9349 13.3039 11.9646 13.3672 11.9821C13.4305 11.9995 13.4967 12.0043 13.5618 11.9962C13.627 11.9881 13.6899 11.9672 13.747 11.9348C13.8041 11.9023 13.8542 11.859 13.8945 11.8072L20.8945 2.80715C20.9747 2.70241 21.0102 2.57024 20.9934 2.43943C20.9765 2.30863 20.9087 2.18977 20.8046 2.10875C20.7005 2.02774 20.5687 1.99112 20.4377 2.00688C20.3068 2.02264 20.1874 2.0895 20.1055 2.19289L13.1055 11.1929C13.0651 11.2447 13.0354 11.3039 13.0179 11.3672C13.0005 11.4305 12.9957 11.4967 13.0038 11.5618C13.0119 11.627 13.0328 11.6899 13.0652 11.747C13.0977 11.8041 13.141 11.8542 13.1929 11.8946Z" fill="#E88428"/>
<path d="M14 6C14.3956 6 14.7822 5.8827 15.1111 5.66294C15.44 5.44318 15.6964 5.13082 15.8478 4.76537C15.9991 4.39992 16.0387 3.99778 15.9616 3.60982C15.8844 3.22186 15.6939 2.86549 15.4142 2.58579C15.1345 2.30608 14.7781 2.1156 14.3902 2.03843C14.0022 1.96126 13.6001 2.00087 13.2346 2.15224C12.8692 2.30362 12.5568 2.55996 12.3371 2.88886C12.1173 3.21776 12 3.60444 12 4C12.0005 4.53027 12.2114 5.03867 12.5864 5.41363C12.9613 5.78859 13.4697 5.99947 14 6ZM14 3C14.1978 3 14.3911 3.05865 14.5556 3.16853C14.72 3.27841 14.8482 3.43459 14.9239 3.61732C14.9996 3.80004 15.0194 4.00111 14.9808 4.19509C14.9422 4.38907 14.847 4.56726 14.7071 4.70711C14.5673 4.84696 14.3891 4.9422 14.1951 4.98079C14.0011 5.01937 13.8 4.99957 13.6173 4.92388C13.4346 4.84819 13.2784 4.72002 13.1685 4.55557C13.0586 4.39112 13 4.19778 13 4C13.0003 3.73489 13.1058 3.48074 13.2933 3.29327C13.4807 3.10581 13.7349 3.00034 14 3Z" fill="#E88428"/>
<path d="M18 10C18 10.3956 18.1173 10.7822 18.3371 11.1111C18.5568 11.44 18.8692 11.6964 19.2346 11.8478C19.6001 11.9991 20.0022 12.0387 20.3902 11.9616C20.7781 11.8844 21.1345 11.6939 21.4142 11.4142C21.6939 11.1345 21.8844 10.7781 21.9616 10.3902C22.0387 10.0022 21.9991 9.60009 21.8478 9.23463C21.6964 8.86918 21.44 8.55682 21.1111 8.33706C20.7822 8.1173 20.3956 8 20 8C19.4697 8.00053 18.9613 8.21141 18.5864 8.58637C18.2114 8.96133 18.0005 9.46973 18 10ZM21 10C21 10.1978 20.9414 10.3911 20.8315 10.5556C20.7216 10.72 20.5654 10.8482 20.3827 10.9239C20.2 10.9996 19.9989 11.0194 19.8049 10.9808C19.6109 10.9422 19.4327 10.847 19.2929 10.7071C19.153 10.5673 19.0578 10.3891 19.0192 10.1951C18.9806 10.0011 19.0004 9.80004 19.0761 9.61732C19.1518 9.43459 19.28 9.27841 19.4444 9.16853C19.6089 9.05865 19.8022 9 20 9C20.2651 9.00034 20.5193 9.10581 20.7067 9.29327C20.8942 9.48073 20.9997 9.73489 21 10Z" fill="#E88428"/>
<path d="M21 17.5C19.6333 17.6167 18.2785 17.8454 16.9493 18.1839C16.6975 16.8681 14.929 16.3814 13.0996 16.0098C12.3557 15.8433 11.6373 15.5784 10.9634 15.2222C10.2122 14.7871 9.36721 14.5394 8.5 14.5C7.53752 14.5188 6.5815 14.6618 5.65564 14.9255C5.5307 14.6228 5.33314 14.3555 5.08041 14.1473C4.82767 13.939 4.52755 13.7962 4.20654 13.7315L0.59814 13.0098C0.5256 12.9959 0.45089 12.9979 0.379215 13.0158C0.307541 13.0336 0.240628 13.0669 0.18314 13.1133C0.125946 13.1603 0.079859 13.2193 0.0481929 13.2861C0.0165268 13.353 6.81266e-05 13.426 8.42054e-08 13.5V21.5C-3.80385e-05 21.5657 0.0128688 21.6307 0.0379827 21.6914C0.0630965 21.7521 0.0999248 21.8072 0.146362 21.8537C0.192799 21.9001 0.247933 21.9369 0.308613 21.962C0.369293 21.9872 0.434328 22.0001 0.5 22H3.19922C3.55367 21.9984 3.9014 21.9031 4.20713 21.7238C4.51286 21.5444 4.76572 21.2874 4.94006 20.9788C6.50958 21.7289 11.4326 24 13.5 24C15.4395 24 19.4311 22.0376 22.0723 20.7393C22.7617 20.4004 23.3315 20.1201 23.7012 19.958C23.79 19.9189 23.8656 19.8547 23.9186 19.7734C23.9717 19.6921 24 19.5971 24 19.5C24 18.3223 22.7661 17.5 21 17.5Z" fill="black"/>
<path d="M3.19922 21H1V14.1099L4.01025 14.7119C4.26091 14.7621 4.48286 14.9063 4.63051 15.115C4.77817 15.3236 4.84032 15.5809 4.8042 15.834L4.189 20.1411C4.15414 20.379 4.03509 20.5966 3.85346 20.7542C3.67183 20.9118 3.43969 20.999 3.19922 21Z" fill="#E88428"/>
<path opacity="0.2" d="M1.92072 16.4009C1.92072 16.2347 1.9576 16.0705 2.0287 15.9203C2.0998 15.7701 2.20335 15.6375 2.33188 15.5321C2.46041 15.4268 2.61073 15.3512 2.77198 15.311C2.93324 15.2707 3.10142 15.2667 3.2644 15.2993L4.79272 15.605C4.77683 15.3914 4.69191 15.1888 4.55076 15.0277C4.40962 14.8666 4.2199 14.7557 4.01025 14.7119L1 14.1099V21H1.92072V16.4009Z" fill="white"/>
<path d="M21.6309 19.8418C19.2285 21.023 15.207 23 13.5 23C11.7829 23 7.21869 20.9692 5.21893 20.0044L5.79443 15.9756C5.79688 15.9585 5.79468 15.942 5.79669 15.9249C6.67528 15.6654 7.58417 15.5226 8.5 15.5C9.21633 15.5431 9.91202 15.7566 10.5293 16.1226C11.2778 16.5155 12.0751 16.8073 12.9004 16.9902C15.0732 17.4307 16 17.8823 16 18.5C16.0037 18.5524 15.9934 18.6049 15.9702 18.652C15.9469 18.6991 15.9116 18.7392 15.8677 18.7681C15.5508 19.0054 14.3096 19.4048 9.64209 18.0205C9.51492 17.9828 9.37799 17.9972 9.26142 18.0605C9.14485 18.1238 9.05819 18.2307 9.0205 18.3579C8.98282 18.4851 8.9972 18.622 9.06047 18.7386C9.12375 18.8552 9.23074 18.9418 9.35791 18.9795C11.0749 19.5563 12.8615 19.9004 14.6699 20.0025C15.2992 20.0505 15.9276 19.899 16.4658 19.5694C16.5808 19.4815 16.6808 19.3755 16.7619 19.2557C18.1532 18.8957 19.57 18.6431 21 18.5C21.3543 18.4623 21.7125 18.507 22.0467 18.6306C22.3809 18.7543 22.6819 18.9536 22.9263 19.2129C22.5772 19.377 22.1353 19.5942 21.6309 19.8418Z" fill="#F2F2F2"/>
<path opacity="0.2" d="M21.7326 18.5757C21.5692 18.6557 21.4072 18.7349 21.2263 18.8237C18.824 20.0048 14.8025 21.9819 13.0955 21.9819C11.5119 21.9819 7.5113 20.2563 5.32947 19.231L5.21899 20.0044C7.2187 20.9692 11.7829 23 13.5 23C15.207 23 19.2285 21.023 21.6309 19.8418C22.1353 19.5942 22.5772 19.377 22.9263 19.2129C22.7812 19.031 22.6005 18.8806 22.3953 18.771C22.19 18.6614 21.9645 18.595 21.7326 18.5757Z" fill="black"/>
<path d="M13.1929 11.8945C13.2447 11.9349 13.3039 11.9646 13.3672 11.982C13.4305 11.9995 13.4966 12.0043 13.5618 11.9962C13.627 11.9881 13.6899 11.9672 13.747 11.9347C13.8041 11.9023 13.8542 11.8589 13.8945 11.8071L20.8945 2.80713C20.9747 2.70239 21.0102 2.57022 20.9934 2.43941C20.9765 2.30861 20.9087 2.18975 20.8046 2.10873C20.7005 2.02772 20.5686 1.9911 20.4377 2.00686C20.3068 2.02262 20.1873 2.08948 20.1055 2.19287L13.1055 11.1929C13.0651 11.2447 13.0354 11.3039 13.0179 11.3672C13.0004 11.4305 12.9956 11.4966 13.0038 11.5618C13.0119 11.627 13.0328 11.6899 13.0652 11.747C13.0977 11.8041 13.141 11.8542 13.1929 11.8945ZM14 6C14.3956 6 14.7822 5.8827 15.1111 5.66294C15.44 5.44318 15.6964 5.13082 15.8478 4.76537C15.9991 4.39992 16.0387 3.99778 15.9616 3.60982C15.8844 3.22186 15.6939 2.86549 15.4142 2.58579C15.1345 2.30608 14.7781 2.1156 14.3902 2.03843C14.0022 1.96126 13.6001 2.00087 13.2346 2.15224C12.8692 2.30362 12.5568 2.55996 12.3371 2.88886C12.1173 3.21776 12 3.60444 12 4C12.0005 4.53027 12.2114 5.03867 12.5864 5.41363C12.9613 5.78859 13.4697 5.99947 14 6ZM14 3C14.1978 3 14.3911 3.05865 14.5556 3.16853C14.72 3.27841 14.8482 3.43459 14.9239 3.61732C14.9996 3.80004 15.0194 4.00111 14.9808 4.19509C14.9422 4.38907 14.847 4.56726 14.7071 4.70711C14.5673 4.84696 14.3891 4.9422 14.1951 4.98079C14.0011 5.01937 13.8 4.99957 13.6173 4.92388C13.4346 4.84819 13.2784 4.72002 13.1685 4.55557C13.0586 4.39112 13 4.19778 13 4C13.0003 3.73489 13.1058 3.48074 13.2933 3.29327C13.4807 3.10581 13.7349 3.00034 14 3ZM18 10C18 10.3956 18.1173 10.7822 18.3371 11.1111C18.5568 11.44 18.8692 11.6964 19.2346 11.8478C19.6001 11.9991 20.0022 12.0387 20.3902 11.9616C20.7781 11.8844 21.1345 11.6939 21.4142 11.4142C21.6939 11.1345 21.8844 10.7781 21.9616 10.3902C22.0387 10.0022 21.9991 9.60009 21.8478 9.23463C21.6964 8.86918 21.44 8.55682 21.1111 8.33706C20.7822 8.1173 20.3956 8 20 8C19.4697 8.00053 18.9613 8.21141 18.5864 8.58637C18.2114 8.96133 18.0005 9.46973 18 10ZM21 10C21 10.1978 20.9414 10.3911 20.8315 10.5556C20.7216 10.72 20.5654 10.8482 20.3827 10.9239C20.2 10.9996 19.9989 11.0194 19.8049 10.9808C19.6109 10.9422 19.4327 10.847 19.2929 10.7071C19.153 10.5673 19.0578 10.3891 19.0192 10.1951C18.9806 10.0011 19.0004 9.80004 19.0761 9.61732C19.1518 9.43459 19.28 9.27841 19.4444 9.16853C19.6089 9.05865 19.8022 9 20 9C20.2651 9.00034 20.5193 9.10581 20.7067 9.29327C20.8942 9.48074 20.9997 9.73489 21 10ZM21 17.5C19.6333 17.6167 18.2785 17.8454 16.9493 18.1838C16.6975 16.8681 14.929 16.3814 13.0996 16.0098C12.3557 15.8432 11.6373 15.5784 10.9634 15.2222C10.2122 14.7871 9.36721 14.5394 8.5 14.5C7.53752 14.5188 6.5815 14.6618 5.65564 14.9255C5.5307 14.6228 5.33314 14.3555 5.08041 14.1473C4.82767 13.939 4.52755 13.7962 4.20654 13.7315L0.59814 13.0098C0.5256 12.9958 0.45089 12.9979 0.379215 13.0158C0.307541 13.0336 0.240628 13.0669 0.18314 13.1133C0.125946 13.1602 0.079859 13.2193 0.0481929 13.2861C0.0165268 13.353 6.81266e-05 13.426 8.42054e-08 13.5V21.5C-3.80385e-05 21.5657 0.0128688 21.6307 0.0379827 21.6914C0.0630965 21.7521 0.0999248 21.8072 0.146362 21.8536C0.192799 21.9001 0.247933 21.9369 0.308613 21.962C0.369293 21.9871 0.434328 22 0.5 22H3.19922C3.55367 21.9984 3.9014 21.9031 4.20713 21.7238C4.51286 21.5444 4.76572 21.2874 4.94006 20.9788C6.50958 21.7289 11.4326 24 13.5 24C15.4395 24 19.4311 22.0376 22.0723 20.7393C22.7617 20.4004 23.3315 20.1201 23.7012 19.958C23.79 19.9189 23.8656 19.8547 23.9186 19.7734C23.9717 19.6921 24 19.5971 24 19.5C24 18.3223 22.7661 17.5 21 17.5Z" fill="url(#paint0_linear_60947_397)"/>
</g>
<defs>
<linearGradient id="paint0_linear_60947_397" x1="5.89649" y1="7.39654" x2="21.1036" y2="22.6036" gradientUnits="userSpaceOnUse">
<stop stop-color="white" stop-opacity="0"/>
<stop offset="1" stop-color="white" stop-opacity="0.1"/>
</linearGradient>
<clipPath id="clip0_60947_397">
<rect width="24" height="24" fill="white"/>
</clipPath>
</defs>
</svg>
